<?xml version="1.0" encoding="utf-8"?>
<svg xmlns="http://www.w3.org/2000/svg" xmlns:xlink="http://www.w3.org/1999/xlink" style="margin: auto; background: rgb(241, 242, 243); display: block; shape-rendering: auto;" width="200px" height="200px" viewBox="0 0 100 100" preserveAspectRatio="xMidYMid">
<g transform="rotate(0 50 50)">
  <rect x="46" y="22.5" rx="4" ry="6.5" width="8" height="13" fill="#333333">
    <animate attributeName="opacity" values="1;0" keyTimes="0;1" dur="1.0309278350515465s" begin="-0.9372071227741331s" repeatCount="indefinite"></animate>
  </rect>
</g><g transform="rotate(32.72727272727273 50 50)">
  <rect x="46" y="22.5" rx="4" ry="6.5" width="8" height="13" fill="#333333">
    <animate attributeName="opacity" values="1;0" keyTimes="0;1" dur="1.0309278350515465s" begin="-0.8434864104967198s" repeatCount="indefinite"></animate>
  </rect>
</g><g transform="rotate(65.45454545454545 50 50)">
  <rect x="46" y="22.5" rx="4" ry="6.5" width="8" height="13" fill="#333333">
    <animate attributeName="opacity" values="1;0" keyTimes="0;1" dur="1.0309278350515465s" begin="-0.7497656982193065s" repeatCount="indefinite"></animate>
  </rect>
</g><g transform="rotate(98.18181818181819 50 50)">
  <rect x="46" y="22.5" rx="4" ry="6.5" width="8" height="13" fill="#333333">
    <animate attributeName="opacity" values="1;0" keyTimes="0;1" dur="1.0309278350515465s" begin="-0.6560449859418932s" repeatCount="indefinite"></animate>
  </rect>
</g><g transform="rotate(130.9090909090909 50 50)">
  <rect x="46" y="22.5" rx="4" ry="6.5" width="8" height="13" fill="#333333">
    <animate attributeName="opacity" values="1;0" keyTimes="0;1" dur="1.0309278350515465s" begin="-0.5623242736644799s" repeatCount="indefinite"></animate>
  </rect>
</g><g transform="rotate(163.63636363636363 50 50)">
  <rect x="46" y="22.5" rx="4" ry="6.5" width="8" height="13" fill="#333333">
    <animate attributeName="opacity" values="1;0" keyTimes="0;1" dur="1.0309278350515465s" begin="-0.46860356138706655s" repeatCount="indefinite"></animate>
  </rect>
</g><g transform="rotate(196.36363636363637 50 50)">
  <rect x="46" y="22.5" rx="4" ry="6.5" width="8" height="13" fill="#333333">
    <animate attributeName="opacity" values="1;0" keyTimes="0;1" dur="1.0309278350515465s" begin="-0.37488284910965325s" repeatCount="indefinite"></animate>
  </rect>
</g><g transform="rotate(229.0909090909091 50 50)">
  <rect x="46" y="22.5" rx="4" ry="6.5" width="8" height="13" fill="#333333">
    <animate attributeName="opacity" values="1;0" keyTimes="0;1" dur="1.0309278350515465s" begin="-0.28116213683223995s" repeatCount="indefinite"></animate>
  </rect>
</g><g transform="rotate(261.8181818181818 50 50)">
  <rect x="46" y="22.5" rx="4" ry="6.5" width="8" height="13" fill="#333333">
    <animate attributeName="opacity" values="1;0" keyTimes="0;1" dur="1.0309278350515465s" begin="-0.18744142455482662s" repeatCount="indefinite"></animate>
  </rect>
</g><g transform="rotate(294.54545454545456 50 50)">
  <rect x="46" y="22.5" rx="4" ry="6.5" width="8" height="13" fill="#333333">
    <animate attributeName="opacity" values="1;0" keyTimes="0;1" dur="1.0309278350515465s" begin="-0.09372071227741331s" repeatCount="indefinite"></animate>
  </rect>
</g><g transform="rotate(327.27272727272725 50 50)">
  <rect x="46" y="22.5" rx="4" ry="6.5" width="8" height="13" fill="#333333">
    <animate attributeName="opacity" values="1;0" keyTimes="0;1" dur="1.0309278350515465s" begin="0s" repeatCount="indefinite"></animate>
  </rect>
</g>
<!-- [ldio] generated by https://loading.io/ --></svg>